Coordinates
version=1
nRows=28
nColumns=23
inDegrees=yes

Units are S.I. units (second, meters, Newtons, ...)
Angles are in degrees.

endheader
time	thorax_tilt	thorax_list	thorax_rotation	thorax_tx	thorax_ty	thorax_tz	sternoclavicular_r2	sternoclavicular_r3	unrotscap_r3	unrotscap_r2	acromioclavicular_r2	acromioclavicular_r3	acromioclavicular_r1	unrothum_r1	unrothum_r3	unrothum_r2	elv_angle	shoulder_elv	shoulder1_r2	shoulder_rot	elbow_flexion	pro_sup
      3.68800000	     -2.54463335	     -1.44132232	    -10.53569591	     -0.38954124	      1.58661661	      0.06641008	     -2.52791964	      1.06936467	     -1.07031368	      2.52596014	     -0.51176862	      4.13373046	      1.85848923	     -1.85763199	     -4.13326746	      0.51126879	     -0.05225307	     10.43895601	      0.05242870	     22.45353223	     96.52299677	      9.15349033
      3.69200000	     -2.06647211	     -1.51436712	    -10.40359291	     -0.39029669	      1.58731830	      0.06610641	     -2.52254216	      1.06689400	     -1.06825319	      2.52081513	     -0.51065834	      4.12517143	      1.85479872	     -1.85373369	     -4.12483465	      0.51027846	      0.03337175	     10.41754067	     -0.03369846	     22.41060543	     96.84805122	      9.14840934
      3.69600000	     -2.01736735	     -1.55577901	    -10.14537168	     -0.39010306	      1.58685670	      0.06542718	     -2.55104374	      1.07877308	     -1.08051065	      2.54945340	     -0.51639007	      4.17196312	      1.87605014	     -1.87454257	     -4.17155663	      0.51611647	      0.38524763	     10.53556068	     -0.38523298	     22.15465874	     98.15346114	      9.10961273
      3.70000000	     -1.97738327	     -1.14435532	     -9.40875692	     -0.39146880	      1.58775844	      0.06450829	     -2.66746949	      1.12816293	     -1.12972348	      2.66578231	     -0.53992915	      4.36228624	      1.96151198	     -1.96018719	     -4.36190841	      0.53968240	      1.49117271	     11.01622751	     -1.49111078	     21.35607514	     99.16246471	      8.96162193
      3.70400000	     -1.45453898	     -1.24530094	     -9.29659727	     -0.39227631	      1.58849648	      0.06415000	     -2.66466384	      1.12696869	     -1.12857231	      2.66296034	     -0.53936123	      4.35770529	      1.95953727	     -1.95798285	     -4.35722343	      0.53910502	      1.59193609	     11.00460440	     -1.59174432	     21.35247290	     99.33519210	      8.95925265
      3.70800000	     -1.29392848	     -1.33857077	     -9.16215458	     -0.39224564	      1.58828662	      0.06367487	     -2.68377674	      1.13479934	     -1.13690069	      2.68223539	     -0.54321762	      4.38915456	      1.97389684	     -1.97197432	     -4.38874027	      0.54303987	      2.26640586	     11.08392774	     -2.26634716	     21.33460818	    100.29593076	      8.92304906
      3.71200000	     -0.77054376	     -1.36185523	     -9.01806808	     -0.39308194	      1.58924398	      0.06348866	     -2.67917321	      1.13320416	     -1.13453650	      2.67702633	     -0.54240241	      4.38110229	      1.97008024	     -1.96826331	     -4.38025473	      0.54180923	      2.38201316	     11.06364949	     -2.38219660	     21.31219564	    100.46842326	      8.91539544
      3.71600000	     -0.27097594	     -1.43278084	     -8.88736638	     -0.39380435	      1.58992840	      0.06312916	     -2.68052196	      1.13357676	     -1.13530083	      2.67870581	     -0.54265674	      4.38371343	      1.97134384	     -1.96942817	     -4.38294308	      0.54221091	      2.50941965	     11.06958400	     -2.50913987	     21.26385318	    100.73868294	      8.90523762
      3.72000000	      0.21084126	     -1.49472940	     -8.73248886	     -0.39453422	      1.59053261	      0.06279303	     -2.68231481	      1.13431658	     -1.13614710	      2.68055711	     -0.54305716	      4.38684478	      1.97287975	     -1.97062886	     -4.38588126	      0.54256144	      2.65257504	     11.07722379	     -2.65261576	     21.21188404	    101.09505997	      8.89327522
      3.72400000	     -4.36910495	     -1.50984358	    -12.18132296	     -0.38851134	      1.58400865	      0.06637419	     -3.13215884	      1.32506873	     -1.32642855	      3.13044498	     -0.63389351	      5.12210487	      2.30260069	     -2.30263664	     -5.12282768	      0.63393758	     36.84146292	     12.93621887	    -36.84145742	     24.89394699	    100.60454488	      7.05285914
      3.72800000	     -3.90538016	     -1.58315251	    -12.06542321	     -0.38909745	      1.58462427	      0.06581723	     -3.16915959	      1.34065258	     -1.34216351	      3.16749547	     -0.64134481	      5.18260323	      2.32988212	     -2.32980046	     -5.18342350	      0.64143032	     36.89191905	     13.08950661	    -36.89175597	     24.87499004	    100.83343979	      7.06106974
      3.73200000	     -3.44215770	     -1.60557944	    -11.90470032	     -0.38980809	      1.58528684	      0.06539498	     -3.20758084	      1.35683810	     -1.35861280	      3.20602741	     -0.64913149	      5.24564467	      2.35841046	     -2.35794707	     -5.24642214	      0.64923967	     36.95647716	     13.24873365	    -36.95647454	     24.86567375	    101.14798304	      7.06924968
      3.73600000	     -3.64841534	     -1.33365491	    -11.34735453	     -0.39030010	      1.58530576	      0.06445859	     -3.38187866	      1.43061899	     -1.43238855	      3.38001021	     -0.68438706	      5.53045100	      2.48640670	     -2.48594342	     -5.53119296	      0.68443547	     37.35682277	     13.96766197	    -37.35682587	     24.42638511	    102.28103976	      7.12727190
      3.74000000	     -3.17314404	     -1.37559238	    -11.25964664	     -0.39080571	      1.58598055	      0.06398782	     -3.41975994	      1.44663513	     -1.44858174	      3.41824773	     -0.69212912	      5.59310713	      2.51462334	     -2.51400881	     -5.59366111	      0.69217183	     37.42916452	     14.12541972	    -37.42911265	     24.38381928	    102.49083180	      7.12858549
      3.74400000	     -2.70113876	     -1.38388037	    -11.10903582	     -0.39149255	      1.58667237	      0.06358794	     -3.46101431	      1.46405185	     -1.46606904	      3.45928183	     -0.70044789	      5.66010410	      2.54495641	     -2.54397680	     -5.66084444	      0.70048883	     37.51807304	     14.29513027	    -37.51772207	     24.35910976	    102.77790525	      7.13039664
      3.74800000	     -2.78908470	     -1.11518087	    -10.81779870	     -0.39129236	      1.58684212	      0.06310634	     -3.59274082	      1.51989842	     -1.52186387	      3.59108734	     -0.72710637	      5.87581251	      2.64192563	     -2.64086417	     -5.87638198	      0.72718691	     37.96332903	     14.83967103	    -37.96321740	     24.01749782	    103.94245923	      7.12266870
      3.75200000	     -2.32983528	     -1.18871486	    -10.62914698	     -0.39213376	      1.58740269	      0.06257192	     -3.64008692	      1.54008028	     -1.54200209	      3.63908311	     -0.73694555	      5.95473678	      2.67723191	     -2.67637908	     -5.95483199	      0.73681202	     38.06368415	     15.03825812	    -38.06361242	     23.99479905	    104.09123791	      7.12159978
      3.75600000	     -2.63528464	     -0.77265492	    -10.10256824	     -0.39278243	      1.58767635	      0.06166092	     -3.86787649	      1.63625513	     -1.63851386	      3.86619497	     -0.78273112	      6.32577749	      2.84432826	     -2.84309687	     -6.32660051	      0.78294934	     38.98254034	     15.97617438	    -38.98240563	     23.39584791	    104.96743039	      7.06419901
      3.76000000	     -2.16834059	     -0.88040753	     -9.94627312	     -0.39356648	      1.58816397	      0.06110613	     -3.91066725	      1.65428250	     -1.65684685	      3.90913594	     -0.79134706	      6.39590838	      2.87604761	     -2.87447221	     -6.39679118	      0.79169953	     39.09321371	     16.15344891	    -39.09272091	     23.40191022	    105.08949747	      7.06468917
      3.76400000	     -1.72073661	     -0.92828361	     -9.77855797	     -0.39426315	      1.58875554	      0.06065161	     -3.95570414	      1.67330862	     -1.67596429	      3.95408272	     -0.80048836	      6.46952183	      2.90923235	     -2.90744100	     -6.47035826	      0.80077083	     39.21814587	     16.33884741	    -39.21824948	     23.39368919	    105.28155161	      7.06232932
      3.76800000	     -4.30040230	     -1.39190102	    -12.24621390	     -0.38976106	      1.58371646	      0.06458327	     -4.40950717	      1.86602694	     -1.86747480	      4.40791158	     -0.89247874	      7.21224942	      3.24230745	     -3.24208644	     -7.21301036	      0.89239772	     54.06361703	     18.21480457	    -54.06370550	     25.62109026	    104.64179683	      6.94256917
      3.77200000	     -3.86428713	     -1.48073927	    -12.12234171	     -0.39027344	      1.58417595	      0.06406193	     -4.45870347	      1.88673218	     -1.88846187	      4.45702661	     -0.90246190	      7.29271264	      3.27850832	     -3.27821363	     -7.29360587	      0.90250004	     54.12017728	     18.41775474	    -54.11989563	     25.57107319	    104.82004261	      6.93724654
      3.77600000	     -3.44630446	     -1.52259152	    -11.96171187	     -0.39087396	      1.58471210	      0.06359784	     -4.51175208	      1.90914262	     -1.91096634	      4.51001335	     -0.91321889	      7.37946102	      3.31755360	     -3.31714539	     -7.38035502	      0.91322717	     54.18865996	     18.63723790	    -54.18864940	     25.52518202	    105.03984754	      6.93083340
      3.78000000	     -3.61237185	     -1.27178505	    -11.54742737	     -0.39109042	      1.58481868	      0.06304574	     -4.67013702	      1.97628816	     -1.97837160	      4.66840431	     -0.94531151	      7.63902757	      3.43412794	     -3.43414332	     -7.63929718	      0.94558707	     54.50559320	     19.29188136	    -54.50551071	     24.95805595	    105.95246943	      6.85032406
      3.78400000	     -3.20103328	     -1.37083065	    -11.38174490	     -0.39178067	      1.58523591	      0.06252333	     -4.72884430	      2.00108569	     -2.00297437	      4.72713237	     -0.95714423	      7.73474345	      3.47730581	     -3.47678211	     -7.73552129	      0.95723150	     54.57832636	     19.53424956	    -54.57838349	     24.93569817	    106.07004459	      6.84525371
      3.78800000	     -2.81032312	     -1.41910220	    -11.21363352	     -0.39239035	      1.58571133	      0.06206414	     -4.79043137	      2.02707229	     -2.02913486	      4.78873933	     -0.96959885	      7.83549043	      3.52271717	     -3.52194267	     -7.83633069	      0.96969694	     54.66093649	     19.78882288	    -54.66085517	     24.89889391	    106.22972430	      6.83774472
      3.79200000	     -2.43037465	     -1.44125076	    -11.03796714	     -0.39300525	      1.58618222	      0.06160615	     -4.85933833	      2.05623224	     -2.05834682	      4.85759048	     -0.98358420	      7.94823593	      3.57345947	     -3.57252455	     -7.94901060	      0.98360359	     54.75630229	     20.07319919	    -54.75617009	     24.84302973	    106.42611133	      6.82729157
      3.79600000	     -3.16010365	     -0.92674202	    -10.53917143	     -0.39327982	      1.58597768	      0.06085004	     -5.19717440	      2.19937943	     -2.20136399	      5.19555564	     -1.05176272	      8.50090968	      3.82179260	     -3.82108360	     -8.50172156	      1.05218791	     55.43678727	     21.46894982	    -55.43663074	     24.07268877	    107.26428915	      6.68825616
